<?xml version="1.0" encoding="UTF-8" standalone="no"?>
<!DOCTYPE svg PUBLIC "-//W3C//DTD SVG 1.1//EN"
 "http://www.w3.org/Graphics/SVG/1.1/DTD/svg11.dtd">
<!-- Generated by graphviz version 2.40.1 (0)
 -->
<!-- Title: components Pages: 1 -->
<svg width="395pt" height="131pt"
 viewBox="0.00 0.00 395.24 131.00" xmlns="http://www.w3.org/2000/svg" xmlns:xlink="http://www.w3.org/1999/xlink">
<g id="graph0" class="graph" transform="scale(1 1) rotate(0) translate(4 127)">
<title>components</title>
<polygon fill="#ffffff" stroke="transparent" points="-4,4 -4,-127 391.2416,-127 391.2416,4 -4,4"/>
<!-- Parser -->
<g id="node1" class="node">
<title>Parser</title>
<ellipse fill="none" stroke="#000000" cx="101.7958" cy="-105" rx="40.8928" ry="18"/>
<text text-anchor="middle" x="101.7958" y="-101.3" font-family="Times,serif" font-size="14.00" fill="#000000">Parser</text>
</g>
<!-- Fetcher -->
<g id="node2" class="node">
<title>Fetcher</title>
<ellipse fill="none" stroke="#000000" cx="46.7958" cy="-18" rx="46.5926" ry="18"/>
<text text-anchor="middle" x="46.7958" y="-14.3" font-family="Times,serif" font-size="14.00" fill="#000000">Fetcher</text>
</g>
<!-- Parser&#45;&gt;Fetcher -->
<g id="edge1" class="edge">
<title>Parser&#45;&gt;Fetcher</title>
<path fill="none" stroke="#000000" d="M67.3532,-95.2081C54.5024,-89.6977 41.2371,-81.3593 33.7958,-69 29.507,-61.8766 29.9098,-53.3732 32.2109,-45.371"/>
<polygon fill="#000000" stroke="#000000" points="35.4969,-46.5764 35.7713,-35.9852 28.952,-44.0937 35.4969,-46.5764"/>
<text text-anchor="middle" x="44.2958" y="-57.8" font-family="Times,serif" font-size="14.00" fill="#000000">url</text>
</g>
<!-- Decoder -->
<g id="node3" class="node">
<title>Decoder</title>
<ellipse fill="none" stroke="#000000" cx="168.7958" cy="-18" rx="50.0912" ry="18"/>
<text text-anchor="middle" x="168.7958" y="-14.3" font-family="Times,serif" font-size="14.00" fill="#000000">Decoder</text>
</g>
<!-- Parser&#45;&gt;Decoder -->
<g id="edge3" class="edge">
<title>Parser&#45;&gt;Decoder</title>
<path fill="none" stroke="#000000" d="M108.9398,-87.0322C113.4878,-76.793 119.9878,-64.043 127.7958,-54 131.2117,-49.6065 135.219,-45.3335 139.3665,-41.3572"/>
<polygon fill="#000000" stroke="#000000" points="141.8158,-43.8612 146.8857,-34.5582 137.1209,-38.669 141.8158,-43.8612"/>
<text text-anchor="middle" x="141.2958" y="-57.8" font-family="Times,serif" font-size="14.00" fill="#000000">xml</text>
</g>
<!-- Storage -->
<g id="node4" class="node">
<title>Storage</title>
<ellipse fill="none" stroke="#000000" cx="339.7958" cy="-105" rx="47.3916" ry="18"/>
<text text-anchor="middle" x="339.7958" y="-101.3" font-family="Times,serif" font-size="14.00" fill="#000000">Storage</text>
</g>
<!-- Parser&#45;&gt;Storage -->
<g id="edge5" class="edge">
<title>Parser&#45;&gt;Storage</title>
<path fill="none" stroke="#000000" d="M142.9806,-105C181.4096,-105 239.1183,-105 282.123,-105"/>
<polygon fill="#000000" stroke="#000000" points="282.1649,-108.5001 292.1649,-105 282.1648,-101.5001 282.1649,-108.5001"/>
<text text-anchor="middle" x="217.5461" y="-111.8" font-family="Times,serif" font-size="14.00" fill="#000000">shop,run,products</text>
</g>
<!-- Fetcher&#45;&gt;Parser -->
<g id="edge2" class="edge">
<title>Fetcher&#45;&gt;Parser</title>
<path fill="none" stroke="#000000" d="M57.2336,-35.5785C63.1634,-45.4613 70.7827,-57.988 77.7958,-69 79.8537,-72.2313 82.0442,-75.6038 84.2327,-78.9332"/>
<polygon fill="#000000" stroke="#000000" points="81.4838,-81.1208 89.929,-87.5184 87.3167,-77.2506 81.4838,-81.1208"/>
<text text-anchor="middle" x="91.2958" y="-57.8" font-family="Times,serif" font-size="14.00" fill="#000000">xml</text>
</g>
<!-- Decoder&#45;&gt;Parser -->
<g id="edge4" class="edge">
<title>Decoder&#45;&gt;Parser</title>
<path fill="none" stroke="#000000" d="M166.9247,-36.3314C165.1343,-46.6918 161.6343,-59.4418 154.7958,-69 150.3016,-75.2816 144.3462,-80.8041 138.0528,-85.5172"/>
<polygon fill="#000000" stroke="#000000" points="135.6587,-82.9133 129.367,-91.4377 139.6013,-88.6974 135.6587,-82.9133"/>
<text text-anchor="middle" x="193.7958" y="-57.8" font-family="Times,serif" font-size="14.00" fill="#000000">products</text>
</g>
<!-- Storage&#45;&gt;Parser -->
<g id="edge6" class="edge">
<title>Storage&#45;&gt;Parser</title>
<path fill="none" stroke="#000000" d="M299.8515,-95.13C284.6722,-91.8472 267.1584,-88.6175 251.0461,-87 221.4173,-84.0257 213.6513,-83.7984 184.0461,-87 171.7841,-88.326 158.6702,-90.7333 146.5979,-93.3651"/>
<polygon fill="#000000" stroke="#000000" points="145.7166,-89.9761 136.7437,-95.6097 147.2713,-96.8012 145.7166,-89.9761"/>
<text text-anchor="middle" x="217.5461" y="-90.8" font-family="Times,serif" font-size="14.00" fill="#000000">statistics</text>
</g>
</g>
</svg>
