<?xml version="1.0" encoding="UTF-8" standalone="no"?>
<!DOCTYPE svg PUBLIC "-//W3C//DTD SVG 1.1//EN"
 "http://www.w3.org/Graphics/SVG/1.1/DTD/svg11.dtd">
<!-- Generated by graphviz version 2.40.1 (0)
 -->
<!-- Title: schema Pages: 1 -->
<svg width="664pt" height="396pt"
 viewBox="0.00 0.00 663.50 396.00" xmlns="http://www.w3.org/2000/svg" xmlns:xlink="http://www.w3.org/1999/xlink">
<g id="graph0" class="graph" transform="scale(1 1) rotate(0) translate(4 392)">
<title>schema</title>
<polygon fill="#ffffff" stroke="transparent" points="-4,4 -4,-392 659.5,-392 659.5,4 -4,4"/>
<!-- product -->
<g id="node1" class="node">
<title>product</title>
<polygon fill="none" stroke="#000000" points="8,-182 8,-203 284,-203 284,-182 8,-182"/>
<text text-anchor="start" x="117.5" y="-188.8" font-family="Times,serif" font-size="14.00" fill="#000000">product</text>
<polygon fill="none" stroke="#000000" points="8,-161 8,-182 91,-182 91,-161 8,-161"/>
<text text-anchor="start" x="42.5" y="-167.8" font-family="Times,serif" font-size="14.00" fill="#000000">id</text>
<polygon fill="none" stroke="#000000" points="91,-161 91,-182 284,-182 284,-161 91,-161"/>
<text text-anchor="start" x="161.5" y="-167.8" font-family="Times,serif" font-size="14.00" fill="#000000">integer</text>
<polygon fill="none" stroke="#000000" points="8,-140 8,-161 91,-161 91,-140 8,-140"/>
<text text-anchor="start" x="22" y="-146.8" font-family="Times,serif" font-size="14.00" fill="#000000">shop_id</text>
<polygon fill="none" stroke="#000000" points="91,-140 91,-161 284,-161 284,-140 91,-140"/>
<text text-anchor="start" x="161.5" y="-146.8" font-family="Times,serif" font-size="14.00" fill="#000000">integer</text>
<polygon fill="none" stroke="#000000" points="8,-119 8,-140 91,-140 91,-119 8,-119"/>
<text text-anchor="start" x="23" y="-125.8" font-family="Times,serif" font-size="14.00" fill="#000000">version</text>
<polygon fill="none" stroke="#000000" points="91,-119 91,-140 284,-140 284,-119 91,-119"/>
<text text-anchor="start" x="161.5" y="-125.8" font-family="Times,serif" font-size="14.00" fill="#000000">integer</text>
<polygon fill="none" stroke="#000000" points="8,-98 8,-119 91,-119 91,-98 8,-98"/>
<text text-anchor="start" x="42.5" y="-104.8" font-family="Times,serif" font-size="14.00" fill="#000000">...</text>
<polygon fill="none" stroke="#000000" points="91,-98 91,-119 284,-119 284,-98 91,-98"/>
<text text-anchor="start" x="180.5" y="-104.8" font-family="Times,serif" font-size="14.00" fill="#000000">...</text>
<polygon fill="none" stroke="#000000" points="8,-77 8,-98 91,-98 91,-77 8,-77"/>
<text text-anchor="start" x="11" y="-83.8" font-family="Times,serif" font-size="14.00" fill="#000000">created_at</text>
<polygon fill="none" stroke="#000000" points="91,-77 91,-98 284,-98 284,-77 91,-77"/>
<text text-anchor="start" x="94" y="-83.8" font-family="Times,serif" font-size="14.00" fill="#000000">timestamp with time zone</text>
<polygon fill="none" stroke="#000000" points="8,-56 8,-77 91,-77 91,-56 8,-56"/>
<text text-anchor="start" x="11.5" y="-62.8" font-family="Times,serif" font-size="14.00" fill="#000000">deleted_at</text>
<polygon fill="none" stroke="#000000" points="91,-56 91,-77 284,-77 284,-56 91,-56"/>
<text text-anchor="start" x="94" y="-62.8" font-family="Times,serif" font-size="14.00" fill="#000000">timestamp with time zone</text>
</g>
<!-- shipping -->
<g id="node2" class="node">
<title>shipping</title>
<polygon fill="none" stroke="#000000" points="75,-363 75,-384 217,-384 217,-363 75,-363"/>
<text text-anchor="start" x="115" y="-369.8" font-family="Times,serif" font-size="14.00" fill="#000000">shipping</text>
<polygon fill="none" stroke="#000000" points="75,-342 75,-363 159,-363 159,-342 75,-342"/>
<text text-anchor="start" x="110" y="-348.8" font-family="Times,serif" font-size="14.00" fill="#000000">id</text>
<polygon fill="none" stroke="#000000" points="159,-342 159,-363 217,-363 217,-342 159,-342"/>
<text text-anchor="start" x="162" y="-348.8" font-family="Times,serif" font-size="14.00" fill="#000000">integer</text>
<polygon fill="none" stroke="#000000" points="75,-321 75,-342 159,-342 159,-321 75,-321"/>
<text text-anchor="start" x="78" y="-327.8" font-family="Times,serif" font-size="14.00" fill="#000000">product_id</text>
<polygon fill="none" stroke="#000000" points="159,-321 159,-342 217,-342 217,-321 159,-321"/>
<text text-anchor="start" x="162" y="-327.8" font-family="Times,serif" font-size="14.00" fill="#000000">integer</text>
<polygon fill="none" stroke="#000000" points="75,-300 75,-321 159,-321 159,-300 75,-300"/>
<text text-anchor="start" x="110" y="-306.8" font-family="Times,serif" font-size="14.00" fill="#000000">...</text>
<polygon fill="none" stroke="#000000" points="159,-300 159,-321 217,-321 217,-300 159,-300"/>
<text text-anchor="start" x="181" y="-306.8" font-family="Times,serif" font-size="14.00" fill="#000000">...</text>
</g>
<!-- shipping&#45;&gt;product -->
<g id="edge3" class="edge">
<title>shipping&#45;&gt;product</title>
<path fill="none" stroke="#000000" d="M146,-295.9992C146,-273.1066 146,-244.647 146,-217.7943"/>
<polygon fill="#000000" stroke="#000000" points="149.5001,-217.5963 146,-207.5963 142.5001,-217.5964 149.5001,-217.5963"/>
</g>
<!-- shop -->
<g id="node3" class="node">
<title>shop</title>
<polygon fill="none" stroke="#000000" points="298,-363 298,-384 574,-384 574,-363 298,-363"/>
<text text-anchor="start" x="419" y="-369.8" font-family="Times,serif" font-size="14.00" fill="#000000">shop</text>
<polygon fill="none" stroke="#000000" points="298,-342 298,-363 381,-363 381,-342 298,-342"/>
<text text-anchor="start" x="332.5" y="-348.8" font-family="Times,serif" font-size="14.00" fill="#000000">id</text>
<polygon fill="none" stroke="#000000" points="381,-342 381,-363 574,-363 574,-342 381,-342"/>
<text text-anchor="start" x="451.5" y="-348.8" font-family="Times,serif" font-size="14.00" fill="#000000">integer</text>
<polygon fill="none" stroke="#000000" points="298,-321 298,-342 381,-342 381,-321 298,-321"/>
<text text-anchor="start" x="329" y="-327.8" font-family="Times,serif" font-size="14.00" fill="#000000">url</text>
<polygon fill="none" stroke="#000000" points="381,-321 381,-342 574,-342 574,-321 381,-321"/>
<text text-anchor="start" x="449.5" y="-327.8" font-family="Times,serif" font-size="14.00" fill="#000000">varchar</text>
<polygon fill="none" stroke="#000000" points="298,-300 298,-321 381,-321 381,-300 298,-300"/>
<text text-anchor="start" x="301" y="-306.8" font-family="Times,serif" font-size="14.00" fill="#000000">created_at</text>
<polygon fill="none" stroke="#000000" points="381,-300 381,-321 574,-321 574,-300 381,-300"/>
<text text-anchor="start" x="384" y="-306.8" font-family="Times,serif" font-size="14.00" fill="#000000">timestamp with time zone</text>
</g>
<!-- shop&#45;&gt;product -->
<g id="edge1" class="edge">
<title>shop&#45;&gt;product</title>
<path fill="none" stroke="#000000" d="M347.8697,-290.5986C332.3281,-280.8235 316.4951,-270.3908 302,-260 279.5074,-243.8761 256.1406,-225.417 234.5507,-207.571"/>
<polygon fill="#000000" stroke="#000000" points="346.1261,-293.6361 356.4636,-295.9572 349.8299,-287.6962 346.1261,-293.6361"/>
</g>
<!-- run -->
<g id="node4" class="node">
<title>run</title>
<polygon fill="none" stroke="#000000" points="319,-235 319,-256 648,-256 648,-235 319,-235"/>
<text text-anchor="start" x="471" y="-241.8" font-family="Times,serif" font-size="14.00" fill="#000000">run</text>
<polygon fill="none" stroke="#000000" points="319,-214 319,-235 455,-235 455,-214 319,-214"/>
<text text-anchor="start" x="380" y="-220.8" font-family="Times,serif" font-size="14.00" fill="#000000">id</text>
<polygon fill="none" stroke="#000000" points="455,-214 455,-235 648,-235 648,-214 455,-214"/>
<text text-anchor="start" x="525.5" y="-220.8" font-family="Times,serif" font-size="14.00" fill="#000000">integer</text>
<polygon fill="none" stroke="#000000" points="319,-193 319,-214 455,-214 455,-193 319,-193"/>
<text text-anchor="start" x="359.5" y="-199.8" font-family="Times,serif" font-size="14.00" fill="#000000">shop_id</text>
<polygon fill="none" stroke="#000000" points="455,-193 455,-214 648,-214 648,-193 455,-193"/>
<text text-anchor="start" x="525.5" y="-199.8" font-family="Times,serif" font-size="14.00" fill="#000000">integer</text>
<polygon fill="none" stroke="#000000" points="319,-172 319,-193 455,-193 455,-172 319,-172"/>
<text text-anchor="start" x="348.5" y="-178.8" font-family="Times,serif" font-size="14.00" fill="#000000">created_at</text>
<polygon fill="none" stroke="#000000" points="455,-172 455,-193 648,-193 648,-172 455,-172"/>
<text text-anchor="start" x="458" y="-178.8" font-family="Times,serif" font-size="14.00" fill="#000000">timestamp with time zone</text>
<polygon fill="none" stroke="#000000" points="319,-151 319,-172 455,-172 455,-151 319,-151"/>
<text text-anchor="start" x="347.5" y="-157.8" font-family="Times,serif" font-size="14.00" fill="#000000">finished_at</text>
<polygon fill="none" stroke="#000000" points="455,-151 455,-172 648,-172 648,-151 455,-151"/>
<text text-anchor="start" x="458" y="-157.8" font-family="Times,serif" font-size="14.00" fill="#000000">timestamp with time zone</text>
<polygon fill="none" stroke="#000000" points="319,-130 319,-151 455,-151 455,-130 319,-130"/>
<text text-anchor="start" x="325" y="-136.8" font-family="Times,serif" font-size="14.00" fill="#000000">products_version</text>
<polygon fill="none" stroke="#000000" points="455,-130 455,-151 648,-151 648,-130 455,-130"/>
<text text-anchor="start" x="525.5" y="-136.8" font-family="Times,serif" font-size="14.00" fill="#000000">integer</text>
<polygon fill="none" stroke="#000000" points="319,-109 319,-130 455,-130 455,-109 319,-109"/>
<text text-anchor="start" x="323.5" y="-115.8" font-family="Times,serif" font-size="14.00" fill="#000000">created_products</text>
<polygon fill="none" stroke="#000000" points="455,-109 455,-130 648,-130 648,-109 455,-109"/>
<text text-anchor="start" x="525.5" y="-115.8" font-family="Times,serif" font-size="14.00" fill="#000000">integer</text>
<polygon fill="none" stroke="#000000" points="319,-88 319,-109 455,-109 455,-88 319,-88"/>
<text text-anchor="start" x="322" y="-94.8" font-family="Times,serif" font-size="14.00" fill="#000000">updated_products</text>
<polygon fill="none" stroke="#000000" points="455,-88 455,-109 648,-109 648,-88 455,-88"/>
<text text-anchor="start" x="525.5" y="-94.8" font-family="Times,serif" font-size="14.00" fill="#000000">integer</text>
<polygon fill="none" stroke="#000000" points="319,-67 319,-88 455,-88 455,-67 319,-67"/>
<text text-anchor="start" x="324.5" y="-73.8" font-family="Times,serif" font-size="14.00" fill="#000000">deleted_products</text>
<polygon fill="none" stroke="#000000" points="455,-67 455,-88 648,-88 648,-67 455,-67"/>
<text text-anchor="start" x="525.5" y="-73.8" font-family="Times,serif" font-size="14.00" fill="#000000">integer</text>
<polygon fill="none" stroke="#000000" points="319,-46 319,-67 455,-67 455,-46 319,-46"/>
<text text-anchor="start" x="331" y="-52.8" font-family="Times,serif" font-size="14.00" fill="#000000">failed_products</text>
<polygon fill="none" stroke="#000000" points="455,-46 455,-67 648,-67 648,-46 455,-46"/>
<text text-anchor="start" x="525.5" y="-52.8" font-family="Times,serif" font-size="14.00" fill="#000000">integer</text>
<polygon fill="none" stroke="#000000" points="319,-25 319,-46 455,-46 455,-25 319,-25"/>
<text text-anchor="start" x="358.5" y="-31.8" font-family="Times,serif" font-size="14.00" fill="#000000">success</text>
<polygon fill="none" stroke="#000000" points="455,-25 455,-46 648,-46 648,-25 455,-25"/>
<text text-anchor="start" x="523.5" y="-31.8" font-family="Times,serif" font-size="14.00" fill="#000000">boolean</text>
<polygon fill="none" stroke="#000000" points="319,-4 319,-25 455,-25 455,-4 319,-4"/>
<text text-anchor="start" x="329.5" y="-10.8" font-family="Times,serif" font-size="14.00" fill="#000000">status_message</text>
<polygon fill="none" stroke="#000000" points="455,-4 455,-25 648,-25 648,-4 455,-4"/>
<text text-anchor="start" x="523.5" y="-10.8" font-family="Times,serif" font-size="14.00" fill="#000000">varchar</text>
</g>
<!-- shop&#45;&gt;run -->
<g id="edge2" class="edge">
<title>shop&#45;&gt;run</title>
<path fill="none" stroke="#000000" d="M448.3721,-286.1938C450.2055,-277.9242 452.1563,-269.1246 454.162,-260.0779"/>
<polygon fill="#000000" stroke="#000000" points="444.9458,-285.4786 446.1983,-295.9992 451.7798,-286.9938 444.9458,-285.4786"/>
</g>
</g>
</svg>
